<svg width="55" height="55" viewBox="0 0 55 55" fill="none" xmlns="http://www.w3.org/2000/svg">
<path d="M27.5 55C42.6878 55 55 42.6878 55 27.5C55 12.3122 42.6878 0 27.5 0C12.3122 0 0 12.3122 0 27.5C0 42.6878 12.3122 55 27.5 55Z" fill="#254472" fill-opacity="0.17"/>
<path d="M27.5 15C26.5122 15 25.7141 15.6982 25.7141 16.5625V17.4365C21.6679 17.998 18.5705 21.0645 18.5705 24.7656V26.3965C18.5705 28.6133 17.7055 30.7666 16.1261 32.4951L15.2945 33.4082C14.9708 33.7598 14.9095 34.2432 15.1327 34.6484C15.3559 35.0537 15.8247 35.3125 16.3382 35.3125H38.6618C39.1753 35.3125 39.6441 35.0537 39.8673 34.6484C40.0905 34.2432 40.0292 33.7598 39.7055 33.4082L38.8739 32.5C37.2945 30.7666 36.4295 28.6133 36.4295 26.3965V24.7656C36.4295 21.0645 33.3321 17.998 29.2859 17.4365V16.5625C29.2859 15.6982 28.4878 15 27.5 15ZM27.5 19.6875H27.9465C31.1499 19.6875 33.7506 21.9629 33.7506 24.7656V26.3965C33.7506 28.7354 34.5264 31.0156 35.9662 32.9688H19.0338C20.4736 31.0156 21.2494 28.7354 21.2494 26.3965V24.7656C21.2494 21.9629 23.8501 19.6875 27.0535 19.6875H27.5ZM31.0718 36.875H27.5H23.9282C23.9282 37.7051 24.3021 38.501 24.9718 39.0869C25.6416 39.6729 26.5512 40 27.5 40C28.4488 40 29.3584 39.6729 30.0282 39.0869C30.6979 38.501 31.0718 37.7051 31.0718 36.875Z" fill="#254472"/>
</svg>
