<svg width="55" height="55" viewBox="0 0 55 55" fill="none" xmlns="http://www.w3.org/2000/svg">
<circle cx="27.5" cy="27.5" r="27.5" fill="#254472" fill-opacity="0.17"/>
<path d="M21.8888 25.9339C23.069 25.9339 24.2227 25.5839 25.204 24.9282C26.1853 24.2725 26.9501 23.3405 27.4017 22.2501C27.8533 21.1598 27.9714 19.96 27.7411 18.8025C27.5107 17.645 26.9423 16.5818 26.1077 15.7473C25.2731 14.9129 24.2098 14.3446 23.0523 14.1145C21.8948 13.8844 20.695 14.0027 19.6047 14.4545C18.5144 14.9063 17.5825 15.6712 16.927 16.6526C16.2715 17.634 15.9217 18.7878 15.9219 19.968C15.9236 21.5499 16.5528 23.0666 17.6715 24.185C18.7902 25.3035 20.3069 25.9325 21.8888 25.9339ZM21.8888 16.0892C22.656 16.0892 23.4059 16.3167 24.0438 16.7429C24.6816 17.1691 25.1788 17.7749 25.4724 18.4836C25.7659 19.1924 25.8428 19.9723 25.6931 20.7247C25.5434 21.4771 25.174 22.1682 24.6316 22.7107C24.0891 23.2531 23.398 23.6226 22.6456 23.7722C21.8932 23.9219 21.1133 23.8451 20.4045 23.5515C19.6958 23.2579 19.09 22.7608 18.6638 22.1229C18.2376 21.4851 18.0101 20.7351 18.0101 19.968C18.0109 18.9395 18.4198 17.9534 19.1471 17.2262C19.8743 16.499 20.8604 16.09 21.8888 16.0892Z" fill="#3A5380"/>
<path d="M34.4921 26.4559C35.3697 26.4559 36.2276 26.1957 36.9573 25.7081C37.6871 25.2205 38.2558 24.5275 38.5917 23.7167C38.9275 22.9058 39.0154 22.0136 38.8442 21.1529C38.673 20.2921 38.2503 19.5015 37.6298 18.8809C37.0092 18.2603 36.2185 17.8377 35.3578 17.6665C34.497 17.4953 33.6048 17.5831 32.794 17.919C31.9832 18.2548 31.2901 18.8236 30.8026 19.5533C30.315 20.283 30.0547 21.1409 30.0547 22.0186C30.0561 23.195 30.5241 24.3229 31.3559 25.1547C32.1878 25.9866 33.3156 26.4545 34.4921 26.4559ZM34.4921 19.6694C34.9567 19.6694 35.4109 19.8072 35.7972 20.0653C36.1835 20.3234 36.4846 20.6903 36.6624 21.1196C36.8403 21.5488 36.8868 22.0212 36.7961 22.4769C36.7055 22.9326 36.4817 23.3512 36.1532 23.6797C35.8247 24.0082 35.4061 24.232 34.9504 24.3226C34.4947 24.4133 34.0223 24.3667 33.5931 24.1889C33.1638 24.0111 32.7969 23.71 32.5388 23.3237C32.2807 22.9374 32.1429 22.4832 32.1429 22.0186C32.1434 21.3957 32.3911 20.7985 32.8316 20.358C33.272 19.9176 33.8692 19.6699 34.4921 19.6694Z" fill="#3A5380"/>
<path d="M34.4919 27.6775C33.4384 27.6807 32.3963 27.8959 31.4277 28.3102C30.4591 28.7246 29.5838 29.3296 28.8539 30.0894C27.2629 28.767 25.3283 27.9252 23.2763 27.6622C21.2243 27.3993 19.1399 27.7262 17.267 28.6046C15.394 29.483 13.8099 30.8767 12.7001 32.6225C11.5903 34.3684 11.0006 36.3942 11 38.4629C11 38.7398 11.11 39.0054 11.3058 39.2012C11.5016 39.397 11.7672 39.507 12.0441 39.507H31.7355C32.0125 39.507 32.278 39.397 32.4738 39.2012C32.6696 39.0054 32.7796 38.7398 32.7796 38.4629C32.7779 37.8221 32.7195 37.1827 32.6053 36.5522H41.2785C41.5554 36.5522 41.8209 36.4422 42.0167 36.2464C42.2126 36.0506 42.3226 35.7851 42.3226 35.5082C42.3203 33.432 41.4946 31.4415 40.0266 29.9735C38.5585 28.5055 36.5681 27.6797 34.4919 27.6775ZM13.1498 37.4188C13.3848 35.4173 14.3 33.5571 15.7424 32.1496C17.1847 30.7421 19.0667 29.8726 21.0734 29.6866C23.0801 29.5006 25.0899 30.0094 26.7663 31.1278C28.4428 32.2463 29.6843 33.9065 30.2832 35.8308C30.4501 36.3476 30.5658 36.8794 30.6288 37.4188H13.1498ZM31.9976 34.4641C31.5891 33.4218 31.0217 32.449 30.3156 31.5803C31.0413 30.8057 31.9678 30.2476 32.9919 29.9684C34.016 29.6891 35.0975 29.6994 36.116 29.9984C37.1345 30.2973 38.0501 30.873 38.7608 31.6614C39.4715 32.4499 39.9495 33.4201 40.1415 34.4641H31.9976Z" fill="#3A5380"/>
</svg>
